<svg width="460" height="356" viewBox="0 0 460 356" fill="none" xmlns="http://www.w3.org/2000/svg">
<path d="M244.592 328.177L89.9694 238.905C85.5961 236.38 86.1441 231.969 91.1947 229.053L196.481 168.287C201.532 165.369 209.172 165.053 213.545 167.58L368.168 256.851C372.541 259.375 371.993 263.787 366.943 266.703L261.656 327.469C256.605 330.385 248.965 330.702 244.592 328.177Z" fill="#F2F2F2"/>
<path d="M404.383 98.708L249.761 9.43738C247.965 8.40004 246.14 8.24137 244.521 8.7947L244.531 8.77872L244.251 8.88402L244.181 8.90938L238.595 11.0494L243.609 13.504L243.537 13.7774L218.352 128.419C217.092 134.157 219.616 140.856 223.989 143.38L374.893 230.505L374.355 236.9L380.461 234.532C382.513 233.573 384.156 231.403 384.836 228.311L410.02 113.669C411.281 107.932 408.757 101.233 404.383 98.708" fill="#263C7A"/>
<path d="M404.383 98.708L249.761 9.43732C247.965 8.39999 246.14 8.24131 244.521 8.79465L244.531 8.77866L244.251 8.88397L244.181 8.90933L238.595 11.0493L243.609 13.504L243.537 13.7773L226.939 89.3333L302.593 148.276L409.267 104.869C408.241 102.212 406.539 99.9533 404.383 98.708" fill="#4067B1"/>
<path d="M398.552 116.331L410.323 111.319C410.539 106.761 408.652 102.052 405.555 99.5333L386.924 107.371L398.552 116.331Z" fill="#2E4B8D"/>
<path d="M368.983 236.292L214.361 147.021C209.987 144.495 207.463 137.797 208.723 132.06L233.908 17.4173C235.169 11.68 239.736 9.076 244.111 11.6013L398.733 100.872C403.107 103.399 405.631 110.096 404.371 115.833L379.185 230.476C377.925 236.213 373.357 238.817 368.983 236.292" fill="#D9EFFB"/>
<path d="M365.631 227.764L220.212 143.848C216.209 141.536 213.9 135.408 215.053 130.157L238.1 25.2506C239.253 20 243.432 17.6173 247.435 19.928L392.855 103.845C396.857 106.155 399.167 112.285 398.013 117.535L374.967 222.443C373.813 227.693 369.633 230.076 365.631 227.764" fill="white"/>
<path d="M365.631 227.764L220.212 143.848C216.209 141.536 213.9 135.408 215.053 130.157L238.1 25.2506C239.253 20 243.432 17.6173 247.435 19.928L392.855 103.845C396.857 106.155 399.167 112.285 398.013 117.535L374.967 222.443C373.813 227.693 369.633 230.076 365.631 227.764" fill="#263C7A"/>
<path d="M371.117 240.18L349.983 237.389L213.545 158.617C209.172 156.092 201.532 156.409 196.481 159.325L99.8027 215.121L87.0227 213.433V220.685L87.0361 220.688C86.9521 222.363 87.9054 223.975 89.9694 225.167L244.592 314.437C248.965 316.963 256.607 316.645 261.656 313.731L366.943 252.964C369.784 251.323 371.201 249.209 371.117 247.225V240.18" fill="#263C7A"/>
<path d="M268.604 190.405L258.911 184.808H152.341L99.8027 215.121L87.0227 213.433V220.685L87.0361 220.688C86.9521 222.363 87.9054 223.975 89.9694 225.167L244.592 314.437C246.903 315.772 250.127 316.305 253.399 316.088L268.604 190.405" fill="#4067B1"/>
<path d="M92.6947 214.183L87.0227 213.433V220.685L87.0361 220.688C86.9521 222.363 87.9054 223.975 89.9694 225.167L92.6947 226.74V214.183Z" fill="#5F92D3"/>
<path d="M246.149 315.16C250.295 316.733 256.223 316.391 260.649 314.26V298.085H246.149V315.16Z" fill="#2E4B8D"/>
<path d="M244.592 307.195L89.9694 217.923C85.5961 215.399 86.1441 210.987 91.1947 208.071L196.481 147.305C201.532 144.388 209.172 144.072 213.545 146.596L368.168 235.868C372.541 238.393 371.993 242.805 366.943 245.72L261.656 306.486C256.605 309.404 248.965 309.72 244.592 307.195Z" fill="#D9EFFB"/>
<path d="M366.943 243.072L261.656 303.839C256.607 306.753 248.965 307.072 244.592 304.547L89.9695 215.275C88.5361 214.447 87.6415 213.416 87.2508 212.301C86.5668 214.369 87.4388 216.463 89.9695 217.923L244.592 307.195C248.965 309.72 256.607 309.404 261.656 306.486L366.943 245.72C370.337 243.76 371.688 241.127 370.888 238.843C370.389 240.349 369.071 241.844 366.943 243.072" fill="white"/>
<path d="M155.733 188.369L148.736 184.331C148.175 184.007 148.245 183.44 148.895 183.065L157.152 178.297C157.8 177.923 158.781 177.883 159.344 178.207L166.34 182.247C166.901 182.571 166.831 183.137 166.181 183.511L157.924 188.279C157.276 188.653 156.295 188.695 155.733 188.369Z" fill="#C0E4F8"/>
<path d="M166.537 194.607L159.541 190.568C158.979 190.244 159.049 189.677 159.699 189.303L167.956 184.535C168.604 184.16 169.585 184.12 170.148 184.444L177.143 188.483C177.705 188.807 177.635 189.373 176.987 189.749L168.728 194.516C168.08 194.891 167.099 194.931 166.537 194.607Z" fill="#C0E4F8"/>
<path d="M177.341 200.845L170.345 196.805C169.783 196.481 169.853 195.916 170.501 195.54L178.76 190.772C179.408 190.399 180.389 190.359 180.951 190.683L187.947 194.721C188.509 195.045 188.439 195.612 187.791 195.987L179.532 200.753C178.884 201.129 177.903 201.169 177.341 200.845Z" fill="#C0E4F8"/>
<path d="M192.283 195.695L185.287 191.655C184.725 191.329 184.796 190.763 185.444 190.389L192.376 186.387C193.025 186.013 194.007 185.972 194.568 186.296L201.564 190.335C202.125 190.66 202.055 191.227 201.407 191.6L194.475 195.603C193.825 195.976 192.845 196.019 192.283 195.695Z" fill="#C0E4F8"/>
<path d="M203.087 201.931L196.091 197.892C195.529 197.568 195.6 197.001 196.248 196.627L203.18 192.625C203.829 192.251 204.811 192.209 205.372 192.533L212.368 196.573C212.929 196.897 212.859 197.464 212.211 197.839L205.279 201.84C204.629 202.215 203.649 202.255 203.087 201.931Z" fill="#C0E4F8"/>
<path d="M213.891 208.169L206.895 204.131C206.333 203.805 206.404 203.239 207.052 202.864L213.984 198.861C214.633 198.488 215.615 198.447 216.176 198.771L223.172 202.811C223.733 203.136 223.663 203.701 223.015 204.076L216.083 208.079C215.433 208.452 214.453 208.493 213.891 208.169Z" fill="#C0E4F8"/>
<path d="M224.695 214.407L217.699 210.367C217.137 210.043 217.208 209.476 217.856 209.101L224.788 205.1C225.436 204.725 226.419 204.685 226.98 205.009L233.976 209.048C234.537 209.372 234.467 209.939 233.819 210.313L226.887 214.315C226.237 214.691 225.257 214.731 224.695 214.407Z" fill="#C0E4F8"/>
<path d="M235.499 220.644L228.503 216.605C227.941 216.281 228.012 215.715 228.66 215.34L235.592 211.337C236.24 210.964 237.221 210.921 237.784 211.248L244.78 215.287C245.341 215.611 245.271 216.177 244.623 216.551L237.691 220.553C237.041 220.928 236.061 220.969 235.499 220.644Z" fill="#C0E4F8"/>
<path d="M246.303 226.881L239.307 222.843C238.745 222.519 238.816 221.952 239.464 221.577L246.396 217.576C247.044 217.2 248.025 217.16 248.588 217.484L255.584 221.524C256.145 221.848 256.075 222.415 255.427 222.789L248.495 226.791C247.847 227.165 246.865 227.205 246.303 226.881Z" fill="#C0E4F8"/>
<path d="M257.107 233.12L250.111 229.081C249.549 228.756 249.62 228.191 250.268 227.815L257.2 223.812C257.848 223.439 258.829 223.399 259.392 223.723L266.388 227.761C266.949 228.085 266.879 228.652 266.231 229.027L259.299 233.028C258.651 233.404 257.668 233.444 257.107 233.12" fill="#C0E4F8"/>
<path d="M267.911 239.357L260.915 235.317C260.353 234.993 260.424 234.427 261.072 234.053L268.004 230.051C268.653 229.676 269.633 229.636 270.196 229.96L277.192 233.999C277.753 234.323 277.683 234.889 277.035 235.264L270.103 239.267C269.453 239.64 268.472 239.681 267.911 239.357" fill="#C0E4F8"/>
<path d="M278.715 245.595L271.719 241.556C271.157 241.232 271.228 240.665 271.876 240.291L278.808 236.288C279.457 235.915 280.437 235.873 281 236.197L287.996 240.237C288.557 240.561 288.487 241.128 287.839 241.501L280.907 245.504C280.257 245.879 279.276 245.919 278.715 245.595Z" fill="#C0E4F8"/>
<path d="M289.519 251.832L282.523 247.793C281.961 247.469 282.032 246.903 282.68 246.528L289.612 242.527C290.261 242.151 291.241 242.111 291.804 242.435L298.8 246.473C299.361 246.799 299.291 247.364 298.643 247.74L291.709 251.743C291.061 252.116 290.08 252.156 289.519 251.832" fill="#C0E4F8"/>
<path d="M208.203 192.741L201.207 188.7C200.644 188.376 200.715 187.809 201.364 187.436L208.295 183.433C208.944 183.06 209.925 183.019 210.487 183.343L217.483 187.381C218.044 187.707 217.975 188.273 217.325 188.647L210.393 192.649C209.745 193.024 208.764 193.065 208.203 192.741" fill="#C0E4F8"/>
<path d="M197.236 186.411L190.24 182.369C189.68 182.045 189.749 181.479 190.399 181.105L197.329 177.103C197.979 176.728 198.96 176.688 199.521 177.012L206.517 181.051C207.079 181.375 207.009 181.943 206.36 182.316L199.428 186.319C198.78 186.693 197.799 186.735 197.236 186.411" fill="#C0E4F8"/>
<path d="M186.253 180.069L171.185 171.368C170.624 171.044 170.695 170.477 171.344 170.104L178.275 166.101C178.924 165.728 179.905 165.687 180.467 166.011L195.535 174.709C196.096 175.033 196.025 175.601 195.377 175.975L188.445 179.977C187.796 180.352 186.816 180.393 186.253 180.069" fill="#C0E4F8"/>
<path d="M193.931 172.357L181.703 165.297C181.141 164.972 181.212 164.407 181.86 164.031L188.792 160.029C189.441 159.655 190.423 159.615 190.984 159.939L203.211 166.999C203.773 167.323 203.703 167.889 203.055 168.264L196.123 172.265C195.473 172.64 194.492 172.681 193.931 172.357" fill="#C0E4F8"/>
<path d="M219.007 198.977L212.011 194.939C211.448 194.615 211.519 194.048 212.168 193.673L219.099 189.672C219.748 189.297 220.729 189.256 221.291 189.581L228.287 193.62C228.848 193.944 228.779 194.511 228.129 194.885L221.197 198.887C220.549 199.261 219.568 199.303 219.007 198.977" fill="#C0E4F8"/>
<path d="M229.811 205.216L222.815 201.177C222.252 200.852 222.323 200.285 222.971 199.912L229.903 195.909C230.552 195.535 231.533 195.493 232.095 195.817L239.091 199.859C239.653 200.183 239.581 200.749 238.933 201.123L232.001 205.125C231.352 205.499 230.372 205.54 229.811 205.216" fill="#C0E4F8"/>
<path d="M240.615 211.453L233.619 207.415C233.056 207.089 233.127 206.524 233.775 206.148L240.708 202.147C241.356 201.772 242.337 201.732 242.899 202.056L249.895 206.095C250.457 206.419 250.385 206.985 249.737 207.361L242.805 211.361C242.156 211.737 241.176 211.777 240.615 211.453" fill="#C0E4F8"/>
<path d="M251.417 217.692L244.423 213.652C243.86 213.328 243.931 212.761 244.579 212.387L251.512 208.384C252.16 208.011 253.141 207.969 253.703 208.293L260.699 212.333C261.26 212.657 261.189 213.224 260.541 213.597L253.609 217.6C252.96 217.975 251.98 218.016 251.417 217.692" fill="#C0E4F8"/>
<path d="M262.221 223.928L255.225 219.889C254.664 219.565 254.735 218.999 255.383 218.624L262.315 214.623C262.964 214.248 263.945 214.207 264.507 214.531L271.503 218.571C272.064 218.895 271.993 219.461 271.345 219.836L264.413 223.837C263.764 224.212 262.784 224.252 262.221 223.928Z" fill="#C0E4F8"/>
<path d="M273.025 230.167L266.029 226.128C265.468 225.804 265.539 225.237 266.187 224.861L273.119 220.86C273.768 220.485 274.749 220.444 275.311 220.769L282.307 224.808C282.868 225.133 282.797 225.699 282.149 226.073L275.217 230.076C274.569 230.451 273.588 230.491 273.025 230.167Z" fill="#C0E4F8"/>
<path d="M283.829 236.404L276.833 232.364C276.272 232.04 276.343 231.473 276.991 231.1L283.923 227.097C284.572 226.723 285.553 226.683 286.115 227.007L293.111 231.045C293.672 231.369 293.601 231.936 292.953 232.311L286.021 236.313C285.373 236.688 284.392 236.728 283.829 236.404Z" fill="#C0E4F8"/>
<path d="M294.633 242.641L287.637 238.603C287.076 238.279 287.147 237.712 287.795 237.337L294.727 233.335C295.375 232.961 296.357 232.92 296.919 233.245L303.915 237.284C304.476 237.608 304.405 238.175 303.757 238.548L296.825 242.551C296.177 242.925 295.196 242.967 294.633 242.641Z" fill="#C0E4F8"/>
<path d="M305.437 248.879L298.441 244.84C297.88 244.516 297.951 243.949 298.599 243.576L305.531 239.573C306.18 239.197 307.16 239.157 307.723 239.481L314.719 243.521C315.28 243.845 315.209 244.412 314.561 244.787L307.629 248.789C306.981 249.163 306 249.203 305.437 248.879Z" fill="#C0E4F8"/>
<path d="M324.645 259.969L309.38 251.155C308.819 250.831 308.889 250.264 309.537 249.891L316.469 245.888C317.119 245.513 318.099 245.472 318.66 245.797L333.925 254.611C334.487 254.935 334.417 255.501 333.768 255.875L326.836 259.877C326.188 260.252 325.207 260.293 324.645 259.969Z" fill="#C0E4F8"/>
<path d="M345.679 247.824L332.795 240.385C332.233 240.061 332.304 239.495 332.952 239.121L339.884 235.119C340.533 234.745 341.513 234.703 342.075 235.028L354.959 242.467C355.521 242.791 355.451 243.357 354.803 243.732L347.871 247.735C347.221 248.108 346.24 248.148 345.679 247.824" fill="#C0E4F8"/>
<path d="M237.927 197.757L230.931 193.719C230.368 193.395 230.439 192.828 231.088 192.453L238.019 188.451C238.668 188.077 239.649 188.036 240.211 188.361L247.207 192.4C247.768 192.724 247.699 193.291 247.049 193.664L240.117 197.667C239.469 198.041 238.488 198.083 237.927 197.757" fill="#C0E4F8"/>
<path d="M226.853 191.364L219.857 187.325C219.296 187.001 219.367 186.435 220.015 186.06L226.947 182.059C227.596 181.684 228.576 181.643 229.139 181.968L236.133 186.007C236.696 186.331 236.625 186.897 235.977 187.272L229.044 191.273C228.396 191.648 227.415 191.689 226.853 191.364Z" fill="#C0E4F8"/>
<path d="M215.781 184.972L208.785 180.932C208.223 180.608 208.293 180.041 208.941 179.668L215.875 175.665C216.523 175.291 217.504 175.251 218.065 175.575L225.061 179.613C225.624 179.937 225.552 180.504 224.904 180.879L217.972 184.881C217.323 185.255 216.343 185.296 215.781 184.972" fill="#C0E4F8"/>
<path d="M204.708 178.58L197.712 174.54C197.151 174.216 197.22 173.648 197.869 173.275L204.801 169.272C205.449 168.899 206.431 168.857 206.992 169.181L213.988 173.221C214.551 173.545 214.48 174.112 213.831 174.485L206.9 178.488C206.251 178.863 205.269 178.904 204.708 178.58" fill="#C0E4F8"/>
<path d="M248.731 203.995L241.735 199.956C241.172 199.632 241.243 199.065 241.892 198.692L248.823 194.689C249.472 194.313 250.453 194.273 251.015 194.597L258.011 198.637C258.572 198.961 258.503 199.528 257.853 199.903L250.921 203.905C250.273 204.279 249.292 204.319 248.731 203.995" fill="#C0E4F8"/>
<path d="M259.535 210.233L252.539 206.195C251.976 205.869 252.047 205.304 252.696 204.928L259.627 200.925C260.276 200.552 261.257 200.512 261.819 200.836L268.815 204.875C269.376 205.199 269.307 205.765 268.657 206.139L261.725 210.141C261.077 210.517 260.096 210.557 259.535 210.233" fill="#C0E4F8"/>
<path d="M270.339 216.471L263.343 212.431C262.78 212.107 262.851 211.54 263.499 211.167L270.431 207.164C271.08 206.789 272.061 206.749 272.623 207.073L279.619 211.112C280.18 211.436 280.109 212.003 279.461 212.377L272.529 216.38C271.88 216.753 270.9 216.795 270.339 216.471" fill="#C0E4F8"/>
<path d="M281.143 222.708L274.147 218.669C273.584 218.345 273.655 217.779 274.303 217.404L281.236 213.401C281.884 213.028 282.866 212.987 283.427 213.311L290.423 217.351C290.985 217.675 290.914 218.241 290.266 218.616L283.333 222.617C282.684 222.992 281.704 223.032 281.143 222.708" fill="#C0E4F8"/>
<path d="M291.945 228.945L284.951 224.907C284.388 224.583 284.459 224.016 285.107 223.641L292.04 219.639C292.688 219.264 293.669 219.224 294.231 219.548L301.227 223.587C301.788 223.912 301.717 224.477 301.069 224.853L294.137 228.856C293.488 229.229 292.508 229.271 291.945 228.945" fill="#C0E4F8"/>
<path d="M302.749 235.184L295.753 231.144C295.192 230.82 295.263 230.253 295.911 229.879L302.843 225.877C303.492 225.503 304.473 225.463 305.035 225.787L312.031 229.825C312.592 230.149 312.521 230.716 311.873 231.091L304.941 235.092C304.292 235.468 303.312 235.508 302.749 235.184Z" fill="#C0E4F8"/>
<path d="M313.553 241.421L306.557 237.381C305.996 237.057 306.067 236.491 306.715 236.117L313.647 232.115C314.296 231.74 315.277 231.699 315.839 232.024L322.835 236.063C323.396 236.387 323.325 236.955 322.677 237.328L315.745 241.331C315.097 241.704 314.116 241.747 313.553 241.421Z" fill="#C0E4F8"/>
<path d="M324.357 247.659L317.361 243.62C316.8 243.296 316.871 242.729 317.519 242.355L324.451 238.353C325.1 237.977 326.081 237.937 326.643 238.261L333.639 242.301C334.2 242.625 334.129 243.192 333.481 243.567L326.549 247.568C325.901 247.943 324.92 247.983 324.357 247.659Z" fill="#C0E4F8"/>
<path d="M335.161 253.897L328.165 249.859C327.604 249.532 327.675 248.967 328.323 248.592L335.255 244.589C335.903 244.216 336.885 244.175 337.447 244.499L344.443 248.537C345.004 248.863 344.933 249.429 344.285 249.804L337.353 253.805C336.705 254.18 335.724 254.221 335.161 253.897Z" fill="#C0E4F8"/>
<path d="M232.237 182.329L225.241 178.291C224.68 177.967 224.749 177.4 225.399 177.025L232.331 173.023C232.979 172.648 233.96 172.607 234.521 172.931L241.517 176.972C242.08 177.296 242.009 177.861 241.36 178.236L234.429 182.239C233.78 182.613 232.799 182.653 232.237 182.329" fill="#C0E4F8"/>
<path d="M221.487 176.123L214.491 172.084C213.929 171.759 214 171.193 214.648 170.817L221.58 166.816C222.229 166.441 223.209 166.401 223.772 166.725L230.768 170.764C231.329 171.088 231.259 171.655 230.611 172.029L223.679 176.031C223.029 176.407 222.048 176.447 221.487 176.123Z" fill="#C0E4F8"/>
<path d="M210.736 169.916L203.74 165.876C203.179 165.552 203.249 164.985 203.899 164.612L210.829 160.609C211.479 160.235 212.46 160.195 213.021 160.519L220.017 164.557C220.579 164.881 220.509 165.448 219.86 165.823L212.928 169.825C212.28 170.199 211.299 170.24 210.736 169.916" fill="#C0E4F8"/>
<path d="M199.987 163.709L192.991 159.671C192.429 159.345 192.499 158.779 193.148 158.405L200.08 154.403C200.728 154.028 201.709 153.987 202.271 154.311L209.267 158.351C209.829 158.676 209.759 159.243 209.109 159.616L202.179 163.619C201.529 163.992 200.548 164.033 199.987 163.709" fill="#C0E4F8"/>
<path d="M211.041 157.327L204.044 153.288C203.484 152.964 203.553 152.397 204.203 152.023L206.493 150.699C207.143 150.325 208.124 150.284 208.685 150.608L215.681 154.647C216.243 154.972 216.173 155.539 215.524 155.913L213.233 157.236C212.584 157.611 211.603 157.651 211.041 157.327Z" fill="#C0E4F8"/>
<path d="M225.069 165.427L218.073 161.387C217.512 161.063 217.583 160.496 218.232 160.123L220.523 158.8C221.172 158.424 222.153 158.384 222.715 158.708L229.711 162.748C230.272 163.072 230.201 163.639 229.553 164.013L227.261 165.336C226.613 165.709 225.632 165.751 225.069 165.427Z" fill="#C0E4F8"/>
<path d="M235.776 171.607L228.78 167.568C228.217 167.244 228.288 166.677 228.936 166.304L231.228 164.979C231.876 164.605 232.857 164.565 233.42 164.889L240.416 168.928C240.977 169.252 240.907 169.819 240.259 170.195L237.967 171.517C237.319 171.891 236.337 171.931 235.776 171.607" fill="#C0E4F8"/>
<path d="M246.481 177.788L239.485 173.749C238.923 173.424 238.993 172.859 239.643 172.483L241.933 171.16C242.583 170.787 243.564 170.747 244.125 171.071L251.121 175.109C251.683 175.433 251.612 176 250.964 176.373L248.672 177.696C248.024 178.072 247.043 178.112 246.481 177.788Z" fill="#C0E4F8"/>
<path d="M257.187 183.969L250.191 179.929C249.628 179.605 249.699 179.039 250.347 178.664L252.639 177.341C253.288 176.968 254.268 176.925 254.831 177.251L261.827 181.289C262.388 181.615 262.319 182.181 261.669 182.555L259.377 183.877C258.729 184.252 257.748 184.293 257.187 183.969" fill="#C0E4F8"/>
<path d="M316.953 218.475L309.957 214.436C309.396 214.112 309.465 213.545 310.115 213.171L312.405 211.848C313.055 211.472 314.036 211.432 314.597 211.756L321.593 215.796C322.155 216.12 322.084 216.687 321.436 217.061L319.144 218.384C318.496 218.759 317.515 218.8 316.953 218.475Z" fill="#C0E4F8"/>
<path d="M327.659 224.656L320.663 220.617C320.1 220.293 320.171 219.727 320.82 219.352L323.111 218.028C323.76 217.653 324.741 217.613 325.303 217.937L332.299 221.976C332.86 222.301 332.791 222.867 332.141 223.243L329.849 224.565C329.201 224.94 328.22 224.98 327.659 224.656Z" fill="#C0E4F8"/>
<path d="M338.364 230.837L331.368 226.799C330.807 226.472 330.876 225.907 331.525 225.532L333.817 224.209C334.465 223.835 335.447 223.795 336.008 224.119L343.004 228.157C343.567 228.481 343.496 229.048 342.847 229.423L340.555 230.747C339.907 231.12 338.925 231.161 338.364 230.837Z" fill="#C0E4F8"/>
<path d="M349.069 237.017L342.073 232.977C341.512 232.653 341.581 232.087 342.231 231.713L344.521 230.391C345.171 230.016 346.152 229.975 346.713 230.3L353.709 234.339C354.271 234.663 354.201 235.229 353.552 235.604L351.261 236.927C350.612 237.301 349.631 237.341 349.069 237.017Z" fill="#C0E4F8"/>
<path d="M243.041 188.567L236.045 184.528C235.484 184.203 235.553 183.637 236.203 183.261L243.135 179.26C243.783 178.885 244.764 178.845 245.325 179.169L252.321 183.208C252.884 183.532 252.813 184.099 252.164 184.473L245.233 188.475C244.584 188.851 243.603 188.891 243.041 188.567" fill="#C0E4F8"/>
<path d="M253.845 194.805L246.849 190.765C246.288 190.441 246.357 189.875 247.007 189.5L253.939 185.497C254.587 185.124 255.568 185.083 256.129 185.408L263.125 189.447C263.688 189.771 263.617 190.337 262.968 190.711L256.037 194.713C255.388 195.088 254.407 195.129 253.845 194.805" fill="#C0E4F8"/>
<path d="M264.649 201.041L257.653 197.003C257.092 196.679 257.161 196.112 257.811 195.739L264.743 191.736C265.391 191.361 266.372 191.32 266.933 191.644L273.931 195.684C274.491 196.008 274.421 196.575 273.772 196.949L266.841 200.952C266.192 201.325 265.211 201.365 264.649 201.041" fill="#C0E4F8"/>
<path d="M275.453 207.28L268.457 203.241C267.896 202.917 267.965 202.351 268.615 201.975L275.545 197.972C276.195 197.599 277.176 197.559 277.737 197.883L284.733 201.921C285.295 202.247 285.225 202.812 284.576 203.187L277.644 207.189C276.996 207.564 276.015 207.604 275.453 207.28" fill="#C0E4F8"/>
<path d="M286.257 213.517L279.261 209.477C278.699 209.153 278.769 208.587 279.419 208.213L286.349 204.211C286.999 203.836 287.98 203.796 288.541 204.12L295.537 208.159C296.099 208.483 296.029 209.049 295.38 209.424L288.448 213.427C287.8 213.801 286.819 213.841 286.257 213.517" fill="#C0E4F8"/>
<path d="M297.061 219.755L290.065 215.716C289.503 215.392 289.573 214.825 290.223 214.451L297.153 210.448C297.803 210.075 298.784 210.033 299.345 210.359L306.341 214.397C306.903 214.721 306.833 215.288 306.184 215.661L299.252 219.664C298.604 220.039 297.623 220.08 297.061 219.755" fill="#C0E4F8"/>
<path d="M307.865 225.992L300.869 221.953C300.307 221.629 300.377 221.063 301.027 220.689L307.959 216.687C308.607 216.311 309.588 216.271 310.149 216.595L317.145 220.635C317.708 220.959 317.637 221.525 316.988 221.9L310.056 225.903C309.408 226.276 308.427 226.316 307.865 225.992Z" fill="#C0E4F8"/>
<path d="M318.669 232.231L311.673 228.192C311.111 227.867 311.181 227.301 311.831 226.925L318.763 222.924C319.411 222.549 320.392 222.509 320.953 222.833L327.949 226.872C328.512 227.196 328.441 227.763 327.792 228.139L320.86 232.139C320.212 232.515 319.231 232.555 318.669 232.231Z" fill="#C0E4F8"/>
<path d="M329.473 238.468L322.477 234.428C321.915 234.104 321.985 233.537 322.635 233.164L329.567 229.161C330.215 228.787 331.196 228.747 331.757 229.071L338.753 233.109C339.316 233.433 339.245 234 338.596 234.375L331.664 238.377C331.016 238.751 330.035 238.793 329.473 238.468Z" fill="#C0E4F8"/>
<path d="M181.273 189.337L160.669 177.441C160.107 177.117 160.179 176.551 160.827 176.176L167.759 172.173C168.407 171.8 169.388 171.759 169.949 172.084L190.553 183.979C191.116 184.304 191.045 184.869 190.396 185.244L183.464 189.247C182.816 189.621 181.835 189.661 181.273 189.337Z" fill="#C0E4F8"/>
<path d="M314.003 265.969L293.399 254.073C292.838 253.749 292.907 253.181 293.556 252.807L300.487 248.805C301.136 248.431 302.118 248.389 302.68 248.713L323.283 260.609C323.846 260.933 323.775 261.501 323.125 261.875L316.194 265.877C315.546 266.251 314.564 266.293 314.003 265.969Z" fill="#C0E4F8"/>
<path d="M270.796 254.801L263.8 250.761C263.237 250.437 263.308 249.871 263.957 249.497L272.215 244.729C272.864 244.355 273.845 244.313 274.407 244.639L281.403 248.677C281.964 249.001 281.893 249.568 281.245 249.943L272.987 254.711C272.339 255.084 271.357 255.125 270.796 254.801Z" fill="#C0E4F8"/>
<path d="M192.337 209.503L181.149 203.043C180.587 202.719 180.657 202.152 181.305 201.779L189.564 197.011C190.212 196.636 191.193 196.595 191.755 196.919L202.944 203.379C203.505 203.703 203.435 204.269 202.787 204.644L194.529 209.413C193.88 209.787 192.899 209.827 192.337 209.503" fill="#C0E4F8"/>
<path d="M260.385 248.792L249.197 242.331C248.636 242.007 248.707 241.44 249.355 241.067L257.612 236.299C258.261 235.924 259.243 235.883 259.804 236.207L270.992 242.668C271.555 242.992 271.484 243.559 270.835 243.932L262.577 248.7C261.929 249.075 260.948 249.116 260.385 248.792Z" fill="#C0E4F8"/>
<path d="M207.925 218.503L196.736 212.043C196.175 211.719 196.245 211.152 196.893 210.777L205.152 206.011C205.8 205.636 206.781 205.595 207.343 205.919L218.532 212.379C219.093 212.703 219.023 213.269 218.375 213.644L210.116 218.412C209.468 218.787 208.487 218.827 207.925 218.503Z" fill="#C0E4F8"/>
<path d="M207.419 205.964L256.064 234.048C256.667 234.397 256.667 234.961 256.064 235.309L247.643 240.172C247.04 240.521 246.061 240.521 245.457 240.172L196.812 212.087L207.419 205.964" fill="#C0E4F8"/>
<path d="M300.991 266.111L308.784 270.609C309.244 270.876 309.187 271.34 308.655 271.647L305.277 273.597C304.745 273.904 303.941 273.937 303.481 273.672L295.688 269.173C295.228 268.907 295.285 268.443 295.817 268.136L299.195 266.185C299.727 265.877 300.531 265.845 300.991 266.111Z" fill="#C0E4F8"/>
<path d="M290.097 259.821L297.891 264.32C298.351 264.585 298.293 265.051 297.761 265.359L294.384 267.308C293.852 267.615 293.048 267.648 292.587 267.383L284.795 262.883C284.333 262.617 284.392 262.153 284.924 261.847L288.301 259.896C288.833 259.588 289.637 259.556 290.097 259.821" fill="#C0E4F8"/>
<path d="M279.293 253.584L287.087 258.084C287.547 258.349 287.489 258.812 286.957 259.12L283.58 261.071C283.048 261.377 282.244 261.411 281.783 261.144L273.991 256.645C273.529 256.38 273.588 255.916 274.12 255.608L277.497 253.657C278.029 253.352 278.833 253.317 279.293 253.584" fill="#C0E4F8"/>
<path d="M296.064 256.376L303.856 260.876C304.317 261.141 304.26 261.605 303.728 261.913L300.349 263.863C299.819 264.171 299.013 264.203 298.553 263.937L290.761 259.439C290.3 259.173 290.357 258.708 290.889 258.401L294.267 256.452C294.799 256.144 295.603 256.111 296.064 256.376" fill="#C0E4F8"/>
<path d="M356.799 111.381L286.532 70.812L287.435 66.2453L357.703 106.813L356.799 111.381" fill="#5F92D3"/>
<path d="M331.632 119.089L282.583 90.7707L283.487 86.2013L332.536 114.523L331.632 119.089Z" fill="#5F92D3"/>
<path d="M326.991 105.291L284.557 80.792L285.46 76.224L327.895 100.723L326.991 105.291" fill="white"/>
<path d="M354.824 121.361L333.607 109.111L334.511 104.543L355.728 116.792L354.824 121.361" fill="#EE1696"/>
<path d="M356.148 156.288L343.735 215.141L299.157 189.419L308.895 170.291L356.148 156.288" fill="#212F5C"/>
<path d="M218.048 246.756C205.649 239.597 205.649 221.701 218.048 214.543L280.372 178.56L343.735 215.141L288.977 246.756C267.032 259.425 239.993 259.425 218.048 246.756" fill="#5F92D3"/>
<path d="M275.209 64.7546L253.289 52.0986L254.223 47.3787L276.144 60.0347L275.209 64.7546Z" fill="#D9EFFB"/>
<path d="M273.259 74.76L251.337 62.104L252.272 57.3853L274.192 70.0414L273.259 74.76Z" fill="white"/>
<path d="M83.9374 182.013L83.96 182.015C73.928 176.443 67.6654 164.235 67.6107 146.761C67.5014 112.171 91.7387 69.8813 121.641 52.492L143.22 39.9427L143.221 39.9413L144.261 40.528L243.243 96.192L218.167 112.491L208.752 119.377L195.792 132.919L193.708 134.819L179.913 155.715L174.855 168.8L171.103 179.201L168.02 201.025L167.808 202.911L168.921 212.111L172.104 223.503L176.593 231.221L183.124 238.973L83.9374 182.013" fill="#5F92D3"/>
<path d="M257.152 95.7707L257.163 99.4333L191.479 137.573C192.592 135.023 194.695 132.907 196.844 130.784L257.152 95.7707" fill="#D9EFFB"/>
<path d="M356.136 152.624L257.152 95.7707L197.225 131.743L189.723 140.475L178.457 160.269L171.38 180.056L169.073 195.524L168.784 210.965L178.453 233.053L191.023 240.399L203.949 241.069L219.455 234.636L342.009 162.539L356.136 152.624Z" fill="#D9EFFB"/>
<path d="M83.9601 182.015C75.5668 177.353 69.8281 168.029 68.1401 154.88L169.099 212.747L172.104 223.503L176.593 231.221L183.124 238.973L83.9375 182.013L83.9601 182.015" fill="#4067B1"/>
<path d="M68.5227 157.405C67.9453 154.111 67.6227 150.571 67.6107 146.761C67.6027 144.215 67.7413 141.624 67.9907 139.005L168.633 196.691L168.02 201.025L167.808 202.911L168.921 212.111L169.867 215.491L68.5227 157.405Z" fill="#263C7A"/>
<path d="M356.148 156.288L356.136 152.624L221.009 231.148C192.855 247.523 169.864 234.345 169.763 201.773C169.659 169.201 192.483 129.381 220.637 113.008L243.255 99.856L243.243 96.1933L220.625 109.345C190.724 126.735 166.487 169.024 166.596 203.615C166.704 238.207 191.12 252.201 221.021 234.811L356.148 156.288" fill="#263C7A"/>
<path d="M302.213 163.311L241.373 127.833L237.556 130.016L298.397 165.492L302.213 163.311Z" fill="#5F92D3"/>
<path d="M300.519 143.067L258.048 118.303L254.232 120.483L296.703 145.249L300.519 143.067Z" fill="#5F92D3"/>
<path d="M286.452 144.492L249.711 123.068L245.895 125.249L282.636 146.673L286.452 144.492" fill="#5F92D3"/>
<path d="M310.552 158.544L292.181 147.832L288.364 150.015L306.736 160.727L310.552 158.544Z" fill="#5F92D3"/>
<path d="M297.025 348.827L428.288 272.989C431.469 271.152 431.071 267.943 427.396 265.82C423.721 263.699 418.163 263.469 414.98 265.305L283.717 341.144C280.536 342.981 280.935 346.191 284.609 348.312C288.284 350.433 293.843 350.664 297.025 348.827" fill="#F2F2F2"/>
<path d="M439.013 247.064C438.904 246.875 438.687 246.777 438.473 246.82L431.485 248.264L434.185 252.964L438.952 247.652C439.097 247.491 439.123 247.252 439.013 247.064Z" fill="#EE1696"/>
<path d="M436.229 250.483C436.232 249.476 435.528 248.251 434.657 247.748C434.255 247.515 433.892 247.483 433.612 247.608C425.555 247.463 417.608 249.505 410.621 253.521L410.115 253.811L418.629 268.633L421.204 266.963C426.653 263.425 431.263 258.741 434.709 253.235L435.821 251.457C436.072 251.279 436.228 250.949 436.229 250.483" fill="#5F92D3"/>
<path d="M420.408 264.724C420.416 260.869 417.72 256.179 414.387 254.244C411.053 252.309 408.344 253.865 408.336 257.72C408.328 261.575 411.024 266.265 414.357 268.2C417.691 270.135 420.4 268.579 420.408 264.724Z" fill="#5F92D3"/>
<path d="M366.907 300.151L418.629 268.633L410.115 253.811L356.844 282.639L366.907 300.151" fill="#5F92D3"/>
<path d="M369.008 295.531C369.017 290.977 365.832 285.433 361.893 283.148C357.953 280.863 354.752 282.701 354.743 287.256C354.733 291.809 357.919 297.355 361.859 299.639C365.797 301.924 368.999 300.085 369.008 295.531Z" fill="#D9EFFB"/>
<path d="M366.059 297.227C366.068 292.673 362.883 287.129 358.943 284.843C355.004 282.557 351.803 284.397 351.793 288.951C351.784 293.505 354.969 299.049 358.908 301.335C362.848 303.62 366.048 301.78 366.059 297.227Z" fill="#D9EFFB"/>
<path d="M295.552 341.148L363.957 301.845L353.895 284.332L285.489 323.636L295.552 341.148Z" fill="#D9EFFB"/>
<path d="M297.653 336.529C297.663 331.976 294.477 326.432 290.537 324.147C286.599 321.861 283.397 323.7 283.388 328.253C283.379 332.808 286.564 338.353 290.503 340.639C294.443 342.922 297.644 341.084 297.653 336.529Z" fill="#D9EFFB"/>
<path d="M295.1 335.049C294.971 332.36 292.815 328.989 290.285 327.522C287.756 326.056 285.811 327.045 285.941 329.736C286.071 332.424 288.227 335.795 290.756 337.261C293.285 338.729 295.231 337.739 295.1 335.049Z" fill="#4067B1"/>
<path d="M369.528 295.233C369.537 290.68 366.352 285.136 362.412 282.849C360.825 281.928 359.364 281.688 358.177 282.015C359.476 280.683 361.587 280.545 363.975 281.929C367.913 284.215 371.099 289.759 371.089 294.312C371.084 297.032 369.935 298.773 368.176 299.256C369.02 298.392 369.524 297.028 369.528 295.233" fill="white"/>
<path d="M369.528 295.233C369.537 290.68 366.352 285.136 362.412 282.849C360.443 281.707 358.657 281.595 357.364 282.339L353.488 284.567L355.293 287.707C355.588 291.852 358.313 296.595 361.745 298.936L363.551 302.079L367.427 299.852C368.72 299.108 369.523 297.51 369.528 295.233" fill="#5F92D3"/>
<path d="M365.652 297.46C365.661 292.907 362.476 287.361 358.537 285.077C354.597 282.792 351.396 284.631 351.387 289.185C351.377 293.739 354.563 299.283 358.503 301.568C362.441 303.853 365.643 302.015 365.652 297.46Z" fill="#D9EFFB"/>
<path d="M291.879 337.039L287.537 329.483L273.039 337.814C270.952 339.012 270.232 341.676 271.431 343.761C272.629 345.849 275.293 346.568 277.38 345.369L291.879 337.039" fill="#EE1696"/>
<path d="M292.785 335.045C292.789 333.081 291.415 330.689 289.715 329.703C288.016 328.717 286.635 329.51 286.631 331.475C286.627 333.44 288.001 335.832 289.701 336.817C291.4 337.805 292.781 337.01 292.785 335.045Z" fill="#EE1696"/>
<path d="M309.069 308.686L306.92 307.439C305.685 306.724 304.041 306.883 302.292 307.888L294.841 312.169C293.435 312.976 292.288 314.955 292.284 316.577L292.276 320.284C292.275 320.907 291.963 321.617 291.512 322.139L291.772 323.86L289.936 322.784L289.94 322.781C289.675 322.643 289.508 322.331 289.509 321.875L289.516 318.167C289.523 314.785 291.915 310.661 294.847 308.976L302.297 304.696C304.788 303.265 307.125 303.039 308.883 304.057L311.031 305.305C312.265 306.021 313.909 305.861 315.66 304.856L345.693 287.6C346.081 287.377 346.431 287.361 346.681 287.515V287.512L348.513 288.584L346.929 289.176C346.704 289.837 346.235 290.476 345.687 290.792L315.653 308.048C313.164 309.479 310.825 309.705 309.069 308.686" fill="#5F92D3"/>
<path d="M308.78 308.528C307.545 307.812 305.903 307.972 304.152 308.977L296.701 313.259C295.295 314.067 294.148 316.043 294.144 317.665L294.136 321.373C294.135 322.255 293.513 323.325 292.749 323.764C291.985 324.204 291.367 323.845 291.369 322.964L291.376 319.256C291.384 315.873 293.775 311.751 296.708 310.067L304.159 305.785C306.648 304.356 308.987 304.129 310.743 305.147L312.891 306.395C314.125 307.11 315.769 306.952 317.52 305.945L347.553 288.689C348.319 288.251 348.936 288.609 348.933 289.491C348.932 290.371 348.311 291.443 347.547 291.881L317.513 309.139C315.024 310.568 312.685 310.795 310.929 309.776L308.78 308.528" fill="#5F92D3"/>
<path d="M294.045 318.276L294.037 321.984L294.025 322.06C294.096 321.828 294.136 321.595 294.136 321.373L294.144 317.665L294.172 317.343C294.097 317.659 294.045 317.973 294.045 318.276Z" fill="white"/>
<path d="M279.984 354.892L293.716 346.964C295.372 346.007 295.164 344.337 293.252 343.233C291.34 342.129 288.448 342.009 286.792 342.965L273.06 350.893C271.403 351.851 271.611 353.52 273.523 354.624C275.435 355.728 278.328 355.848 279.984 354.892" fill="#F2F2F2"/>
<path d="M19.2013 209.261L0.849365 198.667L19.2 188.072L37.5507 198.667L19.2013 209.261" fill="#F2F2F2"/>
<path d="M37.5507 186.648L19.2014 197.244V176.053L37.5507 165.46V186.648Z" fill="#D1078D"/>
<path d="M19.2013 176.053L0.849365 165.46L19.2 154.864L37.5507 165.46L19.2013 176.053" fill="#EE1696"/>
<path d="M19.2014 197.244L0.849365 186.648V165.46L19.2014 176.053V197.244Z" fill="#EE1696"/>
<path d="M439.299 213.151L418.859 201.351L439.297 189.549L459.737 201.351L439.299 213.151Z" fill="#F2F2F2"/>
<path d="M459.739 187.964L439.299 199.764V176.163L459.739 164.361V187.964Z" fill="#263C7A"/>
<path d="M439.299 176.163L418.859 164.361L439.297 152.561L459.737 164.361L439.299 176.163Z" fill="#D9EFFB"/>
<path d="M439.299 199.764L418.859 187.964V164.361L439.299 176.163V199.764Z" fill="#5F92D3"/>
<path d="M146.232 353.603L125.792 341.803L146.232 330.002L166.672 341.803L146.232 353.603Z" fill="#F2F2F2"/>
<path d="M166.672 328.416L146.232 340.216V316.616L166.672 304.814V328.416Z" fill="#263C7A"/>
<path d="M146.232 316.616L125.792 304.814L146.232 293.014L166.672 304.815L146.232 316.616" fill="#D9EFFB"/>
<path d="M146.232 340.216L125.792 328.416V304.814L146.232 316.616V340.216Z" fill="#5F92D3"/>
<path d="M240.627 184.608C228.497 191.611 208.832 191.611 196.703 184.608C184.572 177.605 184.572 166.251 196.701 159.248C208.831 152.245 228.496 152.245 240.627 159.249C252.756 166.251 252.757 177.605 240.627 184.608Z" fill="#5F92D3"/>
<path d="M249.724 162.704V156.995H248.077C246.599 154.449 244.137 152.053 240.627 150.027C228.496 143.023 208.831 143.023 196.701 150.027C193.191 152.053 190.729 154.449 189.251 156.995H187.607V162.659H187.608C187.588 167.263 190.616 171.872 196.703 175.385C208.832 182.389 228.497 182.389 240.627 175.387C246.692 171.884 249.725 167.295 249.724 162.704" fill="#D1078D"/>
<path d="M240.627 169.676C228.497 176.679 208.832 176.679 196.703 169.675C184.572 162.672 184.572 151.317 196.701 144.315C208.831 137.312 228.496 137.312 240.627 144.315C252.756 151.317 252.757 162.672 240.627 169.676Z" fill="#EE1696"/>
<path d="M240.627 169.675C228.497 176.679 208.832 176.679 196.703 169.675C190.889 166.319 187.893 161.963 187.652 157.565C187.389 162.344 190.385 167.169 196.703 170.816C208.832 177.819 228.497 177.819 240.627 170.816C246.944 167.169 249.939 162.344 249.677 157.567C249.436 161.963 246.44 166.319 240.627 169.675Z" fill="white"/>
<path d="M203.693 162.932C203.172 162.631 202.875 162.22 202.875 161.788L202.907 150.104C202.908 149.213 204.163 148.492 205.707 148.493C207.251 148.493 208.497 149.217 208.496 150.111L208.471 159.799L236.588 156.356C238.099 156.169 239.583 156.728 239.903 157.599C240.224 158.472 239.259 159.328 237.749 159.513L206.251 163.369C205.425 163.471 204.564 163.352 203.908 163.044L203.693 162.932" fill="white"/>
<path d="M354.62 129.176C354.064 130.388 352.661 130.82 351.487 130.14C350.312 129.463 349.809 127.931 350.364 126.72C350.92 125.508 352.323 125.076 353.497 125.753C354.672 126.433 355.175 127.965 354.62 129.176Z" fill="#EE1696"/>
<path d="M362.125 133.511C361.569 134.721 360.168 135.153 358.992 134.475C357.817 133.797 357.315 132.264 357.871 131.053C358.425 129.841 359.828 129.411 361.003 130.088C362.179 130.767 362.68 132.299 362.125 133.511" fill="white"/>
<path d="M369.631 137.844C369.076 139.055 367.673 139.487 366.499 138.808C365.323 138.131 364.82 136.597 365.376 135.387C365.931 134.176 367.335 133.744 368.509 134.421C369.684 135.1 370.187 136.632 369.631 137.844" fill="#D9EFFB"/>
<path d="M377.137 142.177C376.581 143.388 375.18 143.82 374.004 143.141C372.829 142.464 372.327 140.931 372.881 139.72C373.437 138.509 374.84 138.077 376.015 138.755C377.189 139.433 377.692 140.967 377.137 142.177" fill="#EE1696"/>
<path d="M144.261 40.5267L143.221 39.9413L143.22 39.9427L121.641 52.4907C114.559 56.6107 107.8 62.1387 101.6 68.62L138.553 89.9547L184.737 63.2907L144.261 40.5267" fill="#263C7A"/>
<path d="M183.744 41.1707L177.043 37.3013L201.749 23.036C202.917 22.3627 202.917 21.2666 201.749 20.592L176.511 6.02131C175.343 5.34797 173.444 5.34797 172.277 6.02131L147.571 20.2853L140.869 16.4173L165.576 2.15197C170.437 -0.654695 178.348 -0.654695 183.211 2.15197L208.451 16.724C213.313 19.5306 213.312 24.0987 208.451 26.9067L183.744 41.1707Z" fill="#EE1696"/>
<path d="M194.557 42.8734C194.557 39.2907 192.379 35.1294 189.692 33.5787L144.928 7.73335C143.725 7.03869 142.625 6.98935 141.776 7.46402L141.773 7.46268L88.3254 38.5213L140.012 77.4694L192.668 46.9067C192.831 46.832 192.988 46.7467 193.133 46.6374V46.636C194.013 45.9707 194.557 44.6627 194.557 42.8734Z" fill="#D9EFFB"/>
<path d="M140.012 77.468L192.668 46.9067C192.831 46.832 192.988 46.7467 193.133 46.6374V46.636C194.013 45.9707 194.557 44.6627 194.557 42.8734C194.557 41.1627 194.057 39.324 193.245 37.696L133.221 72.352L140.012 77.468" fill="#5F92D3"/>
<path d="M136.645 77.3293L91.8814 51.4853C89.1948 49.9333 87.0161 45.772 87.0161 42.1907C87.0161 38.608 89.1948 36.9614 91.8814 38.5134L136.645 64.3573C139.332 65.9093 141.511 70.0707 141.511 73.652C141.511 77.2347 139.332 78.8813 136.645 77.3293Z" fill="#5F92D3"/>
<path d="M137.184 64.112L92.42 38.268C91.1853 37.5547 90.0613 37.524 89.2026 38.04C89.9706 37.8053 90.892 37.94 91.8813 38.5133L136.645 64.3573C139.332 65.9093 141.511 70.0706 141.511 73.652C141.511 75.5866 140.872 76.9506 139.864 77.5573C141.18 77.156 142.049 75.6693 142.049 73.408C142.049 69.8253 139.872 65.664 137.184 64.112" fill="white"/>
<path d="M129.941 68.6133L124.559 65.5093C124.024 65.2 123.589 64.3706 123.589 63.656C123.589 62.9426 124.024 62.6146 124.559 62.9226L129.941 66.028C130.476 66.3373 130.911 67.1667 130.911 67.88C130.911 68.5947 130.476 68.9227 129.941 68.6133" fill="white"/>
<path d="M136.011 31.8666C137.635 30.908 137.619 29.3786 135.975 28.4533C134.332 27.5266 131.684 27.5547 130.06 28.5147C128.437 29.4733 128.453 31.004 130.096 31.9293C131.739 32.856 134.388 32.828 136.011 31.8666" fill="#5F92D3"/>
<path d="M145.024 36.9467C146.648 35.9867 146.632 34.4573 144.988 33.5307C143.345 32.6053 140.697 32.6333 139.073 33.5933C137.451 34.5533 137.467 36.0827 139.109 37.008C140.753 37.9347 143.401 37.9067 145.024 36.9467Z" fill="white"/>
<path d="M154.039 42.0267C155.661 41.0653 155.645 39.536 154.003 38.6107C152.359 37.6853 149.711 37.712 148.088 38.672C146.464 39.6333 146.48 41.1613 148.124 42.0866C149.767 43.0133 152.415 42.9853 154.039 42.0267" fill="white"/>
<path d="M47.2587 313.352L6.32265 289.717C3.81065 288.267 4.12532 285.733 7.02666 284.057L46.5533 261.237C49.4546 259.563 53.8426 259.38 56.3546 260.831L97.2907 284.465C99.8027 285.916 99.4866 288.449 96.5866 290.124L57.06 312.945C54.1587 314.62 49.7707 314.803 47.2587 313.352" fill="#F2F2F2"/>
<path d="M98.9734 273.037V258.915L67.3014 258.896L56.3547 252.576C53.8427 251.125 49.4547 251.307 46.5534 252.981L36.3401 258.879L4.64005 258.861V273.388C4.56805 274.369 5.11604 275.316 6.3227 276.015L47.2587 299.648C49.7707 301.098 54.1587 300.917 57.06 299.241L96.5867 276.42C98.26 275.455 99.0681 274.203 98.9734 273.037" fill="#4067B1"/>
<path d="M51.8067 251.604C49.968 251.648 48.06 252.112 46.5534 252.981L36.3401 258.879L4.64005 258.861V273.388C4.56805 274.369 5.11604 275.316 6.3227 276.015L47.2587 299.648C48.4654 300.345 50.1067 300.661 51.8067 300.62V251.604Z" fill="#4067B1"/>
<path d="M8.22671 258.863L4.64005 258.861V273.388C4.56805 274.369 5.11604 275.316 6.3227 276.015L8.22671 277.113V258.863" fill="#5F92D3"/>
<path d="M47.8894 299.957C50.0561 300.885 53.1907 300.833 55.7241 299.867V283.373H47.8894V299.957Z" fill="#5F92D3"/>
<path d="M47.2587 285.175L6.32265 261.54C3.81065 260.089 4.12532 257.556 7.02666 255.881L46.5533 233.06C49.4546 231.385 53.8426 231.203 56.3546 232.653L97.2907 256.288C99.8027 257.739 99.4866 260.272 96.5866 261.947L57.06 284.768C54.1587 286.443 49.7707 286.625 47.2587 285.175" fill="#D9EFFB"/>
<path d="M96.5866 259.168L57.0599 281.988C54.1586 283.663 49.7706 283.845 47.2586 282.395L6.32259 258.76C5.76259 258.437 5.3506 258.057 5.06927 257.648C4.2066 259.036 4.59726 260.544 6.32259 261.54L47.2586 285.175C49.7706 286.625 54.1586 286.443 57.0599 284.768L96.5866 261.947C98.8412 260.645 99.5253 258.828 98.5439 257.4C98.1506 258.033 97.4946 258.643 96.5866 259.168Z" fill="white"/>
<path d="M83.9174 276.765C83.9174 277.82 83.1774 279.103 82.264 279.629C81.3494 280.156 80.6094 279.729 80.6094 278.675C80.6094 277.621 81.3494 276.339 82.264 275.811C83.1774 275.284 83.9174 275.711 83.9174 276.765Z" fill="#D9EFFB"/>
<path d="M89.2361 273.695C89.2361 274.749 88.4961 276.031 87.5828 276.559C86.6695 277.085 85.9294 276.657 85.9294 275.604C85.9294 274.549 86.6695 273.267 87.5828 272.74C88.4961 272.212 89.2361 272.64 89.2361 273.695Z" fill="#D9EFFB"/>
<path d="M94.5559 270.624C94.5559 271.677 93.8159 272.96 92.9026 273.487C91.9893 274.015 91.2493 273.587 91.2493 272.532C91.2493 271.477 91.9893 270.195 92.9026 269.669C93.8159 269.141 94.5559 269.569 94.5559 270.624Z" fill="#D9EFFB"/>
<path d="M49.6788 270.521L30.5228 259.463C29.3468 258.783 29.4948 257.597 30.8521 256.813L49.3481 246.135C50.7068 245.351 52.7601 245.265 53.9348 245.944L73.0921 257.004C74.2668 257.683 74.1201 258.868 72.7628 259.652L54.2654 270.331C52.9081 271.115 50.8548 271.2 49.6788 270.521" fill="#5F92D3"/>
<path d="M51.5133 261.261L48.8627 259.731C48.7 259.637 48.72 259.472 48.908 259.364L51.4667 257.887C51.6547 257.779 51.9387 257.767 52.1013 257.861L54.752 259.391C54.9146 259.484 54.8947 259.648 54.7067 259.757L52.1467 261.235C51.9587 261.344 51.676 261.356 51.5133 261.261" fill="#D9EFFB"/>
<path d="M30.5228 259.463L30.5774 259.493L30.8521 259.304L49.3481 248.625C50.7068 247.841 52.7601 247.756 53.9348 248.435L73.0374 259.464C74.1214 258.688 74.1774 257.632 73.0921 257.004L53.9348 245.944C52.7601 245.265 50.7068 245.351 49.3481 246.135L30.8521 256.813C29.4948 257.597 29.3468 258.783 30.5228 259.463" fill="#4067B1"/>
</svg>
